<?xml version="1.0" encoding="UTF-8"?>
<svg xmlns="http://www.w3.org/2000/svg" xmlns:xlink="http://www.w3.org/1999/xlink" width="686.97pt" height="186.32pt" viewBox="0 0 686.97 186.32" version="1.1">
<defs>
<clipPath id="clip1">
  <path d="M 0 0 L 187 0 L 187 186.320313 L 0 186.320313 Z M 0 0 "/>
</clipPath>
<clipPath id="clip2">
  <path d="M 646 69 L 686.96875 69 L 686.96875 106 L 646 106 Z M 646 69 "/>
</clipPath>
</defs>
<g id="surface1">
<g clip-path="url(#clip1)" clip-rule="nonzero">
<path style=" stroke:none;fill-rule:nonzero;fill:rgb(92.89856%,10.998535%,14.099121%);fill-opacity:1;" d="M 186.320313 93.160156 C 186.320313 144.609375 144.613281 186.320313 93.160156 186.320313 C 41.707031 186.320313 0 144.609375 0 93.160156 C 0 41.707031 41.707031 0 93.160156 0 C 144.613281 0 186.320313 41.707031 186.320313 93.160156 "/>
</g>
<path style=" stroke:none;fill-rule:nonzero;fill:rgb(100%,100%,100%);fill-opacity:1;" d="M 106.597656 119.234375 L 121.058594 142.941406 L 136.703125 126.109375 L 140.261719 26.785156 Z M 106.597656 119.234375 "/>
<path style=" stroke:none;fill-rule:nonzero;fill:rgb(100%,100%,100%);fill-opacity:1;" d="M 104.703125 121.132813 L 107.070313 170.4375 L 121.058594 148.15625 "/>
<path style=" stroke:none;fill-rule:nonzero;fill:rgb(100%,100%,100%);fill-opacity:1;" d="M 104.230469 170.4375 L 98.300781 67.796875 L 93.144531 76.847656 L 93.085938 157.875 Z M 104.230469 170.4375 "/>
<path style=" stroke:none;fill-rule:nonzero;fill:rgb(100%,100%,100%);fill-opacity:1;" d="M 93.144531 71.46875 L 93.144531 63.289063 L 99.011719 58.3125 "/>
<path style=" stroke:none;fill-rule:nonzero;fill:rgb(100%,100%,100%);fill-opacity:1;" d="M 79.722656 119.234375 L 65.261719 142.941406 L 49.617188 126.109375 L 46.058594 26.785156 Z M 79.722656 119.234375 "/>
<path style=" stroke:none;fill-rule:nonzero;fill:rgb(100%,100%,100%);fill-opacity:1;" d="M 81.617188 121.132813 L 79.25 170.4375 L 65.261719 148.15625 "/>
<path style=" stroke:none;fill-rule:nonzero;fill:rgb(100%,100%,100%);fill-opacity:1;" d="M 82.09375 170.4375 L 88.019531 67.796875 L 93.144531 76.847656 L 93.234375 157.875 Z M 82.09375 170.4375 "/>
<path style=" stroke:none;fill-rule:nonzero;fill:rgb(100%,100%,100%);fill-opacity:1;" d="M 93.175781 71.46875 L 93.175781 63.289063 L 87.308594 58.3125 "/>
<path style=" stroke:none;fill-rule:nonzero;fill:rgb(92.89856%,10.998535%,14.099121%);fill-opacity:1;" d="M 211.402344 60.65625 L 678.308594 60.65625 L 678.308594 55.910156 L 211.402344 55.910156 Z M 211.402344 60.65625 "/>
<path style=" stroke:none;fill-rule:nonzero;fill:rgb(92.89856%,10.998535%,14.099121%);fill-opacity:1;" d="M 258.421875 143.15625 L 274.25 143.15625 L 274.25 43.84375 L 258.421875 43.84375 Z M 258.421875 143.15625 "/>
<path style=" stroke:none;fill-rule:nonzero;fill:rgb(92.89856%,10.998535%,14.099121%);fill-opacity:1;" d="M 494.253906 143.15625 L 510.078125 143.15625 L 510.078125 43.84375 L 494.253906 43.84375 Z M 494.253906 143.15625 "/>
<path style=" stroke:none;fill-rule:nonzero;fill:rgb(92.89856%,10.998535%,14.099121%);fill-opacity:1;" d="M 604.253906 96.464844 L 620.082031 96.464844 L 620.082031 58.878906 L 604.253906 58.878906 Z M 604.253906 96.464844 "/>
<path style=" stroke:none;fill-rule:nonzero;fill:rgb(92.89856%,10.998535%,14.099121%);fill-opacity:1;" d="M 627.003906 96.464844 L 642.832031 96.464844 L 642.832031 58.878906 L 627.003906 58.878906 Z M 627.003906 96.464844 "/>
<path style=" stroke:none;fill-rule:nonzero;fill:rgb(92.89856%,10.998535%,14.099121%);fill-opacity:1;" d="M 615.132813 58.28125 L 630.960938 58.28125 L 630.960938 43.640625 L 615.132813 43.640625 Z M 615.132813 58.28125 "/>
<path style=" stroke:none;fill-rule:nonzero;fill:rgb(92.89856%,10.998535%,14.099121%);fill-opacity:1;" d="M 376.335938 58.546875 L 392.160156 58.546875 L 392.160156 43.84375 L 376.335938 43.84375 Z M 376.335938 58.546875 "/>
<path style=" stroke:none;fill-rule:nonzero;fill:rgb(92.89856%,10.998535%,14.099121%);fill-opacity:1;" d="M 376.335938 143.554688 L 392.160156 143.554688 L 392.160156 101.085938 L 376.335938 101.085938 Z M 376.335938 143.554688 "/>
<path style=" stroke:none;fill-rule:nonzero;fill:rgb(92.89856%,10.998535%,14.099121%);fill-opacity:1;" d="M 207.984375 147.742188 L 267.734375 97.292969 L 264.671875 93.664063 L 204.921875 144.117188 Z M 207.984375 147.742188 "/>
<path style=" stroke:none;fill-rule:nonzero;fill:rgb(92.89856%,10.998535%,14.099121%);fill-opacity:1;" d="M 328.585938 144.03125 L 267.71875 93.648438 L 264.691406 97.304688 L 325.558594 147.691406 Z M 328.585938 144.03125 "/>
<path style=" stroke:none;fill-rule:nonzero;fill:rgb(92.89856%,10.998535%,14.099121%);fill-opacity:1;" d="M 230.394531 72.53125 L 302.011719 72.53125 L 302.011719 67.78125 L 230.394531 67.78125 Z M 230.394531 72.53125 "/>
<path style=" stroke:none;fill-rule:nonzero;fill:rgb(92.89856%,10.998535%,14.099121%);fill-opacity:1;" d="M 230.394531 87.5625 L 302.011719 87.5625 L 302.011719 82.816406 L 230.394531 82.816406 Z M 230.394531 87.5625 "/>
<path style=" stroke:none;fill-rule:nonzero;fill:rgb(92.89856%,10.998535%,14.099121%);fill-opacity:1;" d="M 230.394531 102.207031 L 302.011719 102.207031 L 302.011719 97.457031 L 230.394531 97.457031 Z M 230.394531 102.207031 "/>
<path style=" stroke:none;fill-rule:nonzero;fill:rgb(92.89856%,10.998535%,14.099121%);fill-opacity:1;" d="M 230.390625 100.691406 L 246.21875 100.691406 L 246.21875 70.417969 L 230.390625 70.417969 Z M 230.390625 100.691406 "/>
<path style=" stroke:none;fill-rule:nonzero;fill:rgb(92.89856%,10.998535%,14.099121%);fill-opacity:1;" d="M 286.183594 100.753906 L 302.011719 100.753906 L 302.011719 70.484375 L 286.183594 70.484375 Z M 286.183594 100.753906 "/>
<path style=" stroke:none;fill-rule:nonzero;fill:rgb(92.89856%,10.998535%,14.099121%);fill-opacity:1;" d="M 465.957031 96.011719 L 537.582031 96.011719 L 537.582031 91.261719 L 465.957031 91.261719 Z M 465.957031 96.011719 "/>
<path style=" stroke:none;fill-rule:nonzero;fill:rgb(92.89856%,10.998535%,14.099121%);fill-opacity:1;" d="M 455.140625 107.28125 L 548.722656 107.28125 L 548.722656 102.53125 L 455.140625 102.53125 Z M 455.140625 107.28125 "/>
<path style=" stroke:none;fill-rule:nonzero;fill:rgb(92.89856%,10.998535%,14.099121%);fill-opacity:1;" d="M 465.957031 119.347656 L 537.582031 119.347656 L 537.582031 114.601563 L 465.957031 114.601563 Z M 465.957031 119.347656 "/>
<path style=" stroke:none;fill-rule:nonzero;fill:rgb(92.89856%,10.998535%,14.099121%);fill-opacity:1;" d="M 521.753906 118.425781 L 537.578125 118.425781 L 537.578125 92.90625 L 521.753906 92.90625 Z M 521.753906 118.425781 "/>
<path style=" stroke:none;fill-rule:nonzero;fill:rgb(92.89856%,10.998535%,14.099121%);fill-opacity:1;" d="M 348.242188 72.53125 L 419.859375 72.53125 L 419.859375 67.78125 L 348.242188 67.78125 Z M 348.242188 72.53125 "/>
<path style=" stroke:none;fill-rule:nonzero;fill:rgb(92.89856%,10.998535%,14.099121%);fill-opacity:1;" d="M 348.242188 102.207031 L 419.859375 102.207031 L 419.859375 97.457031 L 348.242188 97.457031 Z M 348.242188 102.207031 "/>
<path style=" stroke:none;fill-rule:nonzero;fill:rgb(92.89856%,10.998535%,14.099121%);fill-opacity:1;" d="M 348.242188 100.691406 L 364.070313 100.691406 L 364.070313 70.417969 L 348.242188 70.417969 Z M 348.242188 100.691406 "/>
<path style=" stroke:none;fill-rule:nonzero;fill:rgb(92.89856%,10.998535%,14.099121%);fill-opacity:1;" d="M 404.03125 100.753906 L 419.859375 100.753906 L 419.859375 70.484375 L 404.03125 70.484375 Z M 404.03125 100.753906 "/>
<path style=" stroke:none;fill-rule:nonzero;fill:rgb(92.89856%,10.998535%,14.099121%);fill-opacity:1;" d="M 466.421875 70.023438 L 538.039063 70.023438 L 538.039063 65.273438 L 466.421875 65.273438 Z M 466.421875 70.023438 "/>
<path style=" stroke:none;fill-rule:nonzero;fill:rgb(92.89856%,10.998535%,14.099121%);fill-opacity:1;" d="M 466.421875 84.269531 L 538.039063 84.269531 L 538.039063 79.523438 L 466.421875 79.523438 Z M 466.421875 84.269531 "/>
<path style=" stroke:none;fill-rule:nonzero;fill:rgb(92.89856%,10.998535%,14.099121%);fill-opacity:1;" d="M 466.425781 82.15625 L 482.253906 82.15625 L 482.253906 67.914063 L 466.425781 67.914063 Z M 466.425781 82.15625 "/>
<path style=" stroke:none;fill-rule:nonzero;fill:rgb(92.89856%,10.998535%,14.099121%);fill-opacity:1;" d="M 522.210938 82.417969 L 538.035156 82.417969 L 538.035156 67.980469 L 522.210938 67.980469 Z M 522.210938 82.417969 "/>
<path style=" stroke:none;fill-rule:nonzero;fill:rgb(92.89856%,10.998535%,14.099121%);fill-opacity:1;" d="M 366.589844 107.949219 L 322.566406 143.960938 L 325.574219 147.636719 L 369.597656 111.625 Z M 366.589844 107.949219 "/>
<path style=" stroke:none;fill-rule:nonzero;fill:rgb(92.89856%,10.998535%,14.099121%);fill-opacity:1;" d="M 398.542969 111.625 L 442.5625 147.636719 L 445.570313 143.960938 L 401.550781 107.949219 Z M 398.542969 111.625 "/>
<path style=" stroke:none;fill-rule:nonzero;fill:rgb(92.89856%,10.998535%,14.099121%);fill-opacity:1;" d="M 639.730469 99.433594 L 587.203125 143.554688 L 605.625 143.554688 L 657.734375 99.433594 Z M 639.730469 99.433594 "/>
<path style=" stroke:none;fill-rule:nonzero;fill:rgb(92.89856%,10.998535%,14.099121%);fill-opacity:1;" d="M 659.320313 148.300781 L 650.617188 148.300781 L 598.480469 104.476563 L 603.722656 101.414063 Z M 659.320313 148.300781 "/>
<path style=" stroke:none;fill-rule:nonzero;fill:rgb(92.89856%,10.998535%,14.099121%);fill-opacity:1;" d="M 601.414063 99.425781 L 574.242188 122.640625 L 577.328125 126.25 L 604.5 103.035156 Z M 601.414063 99.425781 "/>
<path style=" stroke:none;fill-rule:nonzero;fill:rgb(92.89856%,10.998535%,14.099121%);fill-opacity:1;" d="M 596.847656 69.730469 L 559.214844 101.664063 L 562.285156 105.285156 L 599.921875 73.351563 Z M 596.847656 69.730469 "/>
<path style=" stroke:none;fill-rule:nonzero;fill:rgb(92.89856%,10.998535%,14.099121%);fill-opacity:1;" d="M 647.800781 71.539063 L 685.429688 103.476563 "/>
<g clip-path="url(#clip2)" clip-rule="nonzero">
<path style=" stroke:none;fill-rule:nonzero;fill:rgb(92.89856%,10.998535%,14.099121%);fill-opacity:1;" d="M 646.261719 73.351563 L 683.894531 105.285156 L 686.96875 101.664063 L 649.335938 69.730469 Z M 646.261719 73.351563 "/>
</g>
<path style=" stroke:none;fill-rule:nonzero;fill:rgb(92.89856%,10.998535%,14.099121%);fill-opacity:1;" d="M 601.355469 102.621094 L 642.109375 102.621094 L 642.109375 99.425781 L 601.355469 99.425781 Z M 601.355469 102.621094 "/>
</g>
</svg>
